<?xml version="1.0" encoding="UTF-8" standalone="no"?><!-- Generator: Gravit.io --><svg xmlns="http://www.w3.org/2000/svg" xmlns:xlink="http://www.w3.org/1999/xlink" style="isolation:isolate" viewBox="0 0 18 24" width="18pt" height="24pt"><defs><clipPath id="_clipPath_utPljOcC5mN9e2QXkUTIQ4J76LQ498O4"><rect width="18" height="24"/></clipPath></defs><g clip-path="url(#_clipPath_utPljOcC5mN9e2QXkUTIQ4J76LQ498O4)"><rect width="18" height="24" style="fill:rgb(45,74,34)"/><path d=" M 15.5 15.958 C 15.5 16.835 15.276 17.659 14.829 18.43 C 14.399 19.202 13.755 19.85 12.895 20.376 C 12.053 20.902 11.051 21.218 9.887 21.323 L 9.887 23.453 L 8.141 23.453 L 8.141 21.323 C 6.458 21.165 5.097 20.648 4.058 19.771 C 3.019 18.895 2.5 17.738 2.5 16.3 L 5.777 16.3 C 5.831 16.984 6.055 17.554 6.449 18.009 C 6.843 18.448 7.407 18.728 8.141 18.851 L 8.141 13.065 C 6.942 12.767 5.965 12.469 5.213 12.171 C 4.461 11.855 3.817 11.364 3.28 10.698 C 2.76 10.032 2.5 9.12 2.5 7.963 C 2.5 6.508 3.019 5.307 4.058 4.36 C 5.097 3.396 6.458 2.835 8.141 2.677 L 8.141 0.547 L 9.887 0.547 L 9.887 2.677 C 11.462 2.817 12.725 3.308 13.674 4.15 C 14.641 4.974 15.187 6.113 15.312 7.569 L 12.035 7.569 C 11.982 7.025 11.767 6.543 11.391 6.122 C 11.015 5.684 10.513 5.386 9.887 5.228 L 9.887 10.909 C 11.086 11.189 12.062 11.487 12.815 11.803 C 13.567 12.101 14.202 12.583 14.721 13.249 C 15.241 13.898 15.5 14.801 15.5 15.958 Z  M 5.616 7.805 C 5.616 8.524 5.831 9.085 6.261 9.488 C 6.708 9.892 7.335 10.216 8.141 10.461 L 8.141 5.149 C 7.371 5.237 6.754 5.508 6.288 5.964 C 5.84 6.42 5.616 7.034 5.616 7.805 Z  M 9.887 18.851 C 10.675 18.728 11.292 18.421 11.74 17.931 C 12.187 17.422 12.411 16.817 12.411 16.116 C 12.411 15.415 12.187 14.871 11.74 14.485 C 11.31 14.082 10.692 13.758 9.887 13.512 L 9.887 18.851 Z " fill="rgb(73,170,38)"/></g></svg>